<svg width="96" height="96" viewBox="0 0 96 96" fill="none" xmlns="http://www.w3.org/2000/svg">
<path d="M82.7282 27.4782C82.7282 27.1104 82.7282 27.1012 82.342 27.1012C81.4363 27.0939 80.5326 27.0171 79.6387 26.8714C76.393 26.3748 65.8467 20.858 64.0721 11.8196C63.8595 10.705 63.7182 9.57783 63.6492 8.44516C63.6492 8.01301 63.6492 8.01303 63.217 8.00383H50.5651C49.7284 8.00383 49.8479 7.90268 49.8479 8.7394V62.3629C49.8619 63.0277 49.8157 63.6924 49.71 64.349C49.4573 65.8918 48.8952 67.3675 48.0575 68.6875C47.2198 70.0075 46.1239 71.1444 44.8355 72.0299C43.5471 72.9155 42.093 73.5313 40.5605 73.8404C39.028 74.1495 37.4488 74.1456 35.9179 73.8287C34.9876 73.6059 34.0796 73.2981 33.2055 72.9092L32.9848 72.7161C32.6903 72.4736 32.3834 72.2465 32.0654 72.0357C28.2496 69.3968 26.4382 65.7281 26.9899 61.14C27.5416 56.5518 30.2264 53.3245 34.6307 51.697C35.9439 51.2125 37.3435 51.0059 38.7407 51.0902C39.6481 51.1226 40.5489 51.2584 41.4256 51.4948C41.729 51.5867 41.8945 51.4948 41.9129 51.1546C41.9129 51.0442 41.9129 50.9339 41.9129 50.8144C41.9129 47.6054 41.7934 40.599 41.775 40.5807C41.775 39.6612 41.775 38.7417 41.775 37.8222C41.775 37.5556 41.6463 37.5096 41.4164 37.482C37.9996 37.0522 34.531 37.3253 31.2237 38.2847C27.9163 39.244 24.84 40.8693 22.1835 43.0608C19.5271 45.2522 17.3467 47.9635 15.7762 51.0283C14.2056 54.093 13.2782 57.4464 13.0507 60.8825C12.968 62.1938 12.9865 63.5095 13.1059 64.8179C13.4023 68.2702 14.4107 71.6236 16.0675 74.6668C17.7244 77.71 19.9939 80.3769 22.7327 82.4993C23.1295 82.8613 23.5714 83.1704 24.0476 83.4188L24.6728 83.9705C25.3362 84.4669 26.0442 84.9009 26.7876 85.2669C31.892 87.8389 37.7114 88.6252 43.3153 87.5C48.9192 86.3749 53.9841 83.4034 57.7002 79.0605C61.6835 74.4723 63.8517 68.5858 63.7963 62.51C63.8423 53.6095 63.7963 44.7091 63.7963 35.8454C63.7963 35.6339 63.6675 35.3305 63.9066 35.2201C64.1457 35.1098 64.2744 35.3856 64.4399 35.496C67.7206 37.6622 71.3647 39.2195 75.1977 40.0933C77.4396 40.6259 79.7344 40.9035 82.0386 40.9209C82.7741 40.9209 82.8661 40.9209 82.8661 40.1577C82.8937 36.9579 82.7282 28.3149 82.7282 27.4782Z" fill="white"/>
</svg>
