<svg width="96" height="96" viewBox="0 0 96 96" fill="none" xmlns="http://www.w3.org/2000/svg">
<path d="M86.2949 28.7034C85.8395 26.9992 84.943 25.4451 83.6957 24.1978C82.4483 22.9505 80.8943 22.0539 79.1901 21.5986C72.9911 20 48 20 48 20C48 20 23.0089 20 16.7744 21.6696C15.0702 22.125 13.5162 23.0215 12.2688 24.2688C11.0215 25.5162 10.125 27.0702 9.66963 28.7744C8 34.9911 8 48.0107 8 48.0107C8 48.0107 8 61.0213 9.66963 67.2558C10.1293 68.953 11.028 70.4992 12.2753 71.7387C13.5225 72.9781 15.0743 73.8671 16.7744 74.3162C23.0089 75.9503 48 75.9503 48 75.9503C48 75.9503 72.9911 75.9503 79.2256 74.2807C80.9257 73.8316 82.4775 72.9426 83.7247 71.7031C84.972 70.4637 85.8707 68.9175 86.3304 67.2203C88 61.0036 88 47.9751 88 47.9751C88 47.9751 87.9645 34.9378 86.2949 28.7034ZM40.0071 59.9645V35.9858L60.7709 47.9751L40.0071 59.9645Z" fill="white"/>
</svg>
